PLOT

Ever since her mother was found dead in the snow when she was eight, Gerda hated winter and kept herself safely hidden away from it as well as the rest of the world. It isn't until the new bellboy at her father's inn, Kai, takes notice of her that she begins to live again. However, just as the pair fall in love, Kai suddenly becomes cold and hateful. As he tries to fight his new nature, a mysterious woman dressed all in white comes to the inn and takes Kai away. Only Gerda believes he is still alive. With all of her faith, love, and courage, she will jorney through each season until it leads her to Kai and The Snow Queen.

CAST

Bridget Fonda, Duncan Fraser, Rachel Hayward, Suzy Joachim, Robert Wisden, Long John Baldry, Wanda Cannon, Jennifer Clement, Jim Byrnes, John De Santis, Kira Clavell, Chelsea Hobbs, Jeremy Guilbaut, Meghan Black, Jessie Borgstrom, Morris Bart & Kimberly C. Anderson, Rhys Lloyd, Alexander Hoy, Trever Havixbeck, Kris Pope, Daniel Gillies, Sage Brocklebank, Markus Welby, Adrian Holmes, Richard Coombs, Dan Payne

Director: David Wu

General

Snow Queen 2002 DVDRip Xvid fasamoo LKRG

RIPPER : fasamoo
Format : AVI
Format/Info : Audio Video Interleave
File size : 1.37 GiB
Duration : 2h 52mn
Overall bit rate : 1 135 Kbps
Writing application : VirtualDubMod 1.5.4.1 (build 2178/release)
Writing library : VirtualDubMod build 2178/release
Language : English
Genre : Adventure | Family | Fantasy | Action


Video
ID : 0
Format : MPEG-4 Visual
Format profile : Advanced Simple@L5
Format settings, BVOP : Yes
Format settings, QPel : No
Format settings, GMC : No warppoints
Format settings, Matrix : Custom
Codec ID : XVID
Codec ID/Hint : XviD
Duration : 2h 52mn
Bit rate : 1 007 Kbps
Width : 656 pixels
Height : 352 pixels
Display aspect ratio : 1.864
Frame rate : 23.976 fps
Color space : YUV
Chroma subsampling : 4:2:0
Bit depth : 8 bits
Scan type : Progressive
Bits/(Pixel*Frame) : 0.182
Stream size : 1.22 GiB (89%)
Writing library : XviD 1.2.1 (UTC 2008-12-04)

Audio
ID : 1
Format : MPEG Audio
Format version : Version 1
Format profile : Layer 3
Mode : Joint stereo
Mode extension : MS Stereo
Codec ID : 55
Codec ID/Hint : MP3
Duration : 2h 52mn
Bit rate mode : Variable
Bit rate : 115 Kbps
Nominal bit rate : 128 Kbps
Channel(s) : 2 channels
Sampling rate : 48.0 KHz
Stream size : 142 MiB (10%)
Alignment : Aligned on interleaves
Interleave, duration : 24 ms (0.58 video frame)
Interleave, preload duration : 518 ms
Writing library : LAME3.98r
Encoding settings : -m j -V 4 -q 2 -lowpass 17 --abr 128
 
http://www.imdb.com/title/tt0210294/
 
http://leetleech.org/images/67866771556741479531.png 
http://leetleech.org/images/62904195610500507409.png 
http://leetleech.org/images/08464506729621437288.png 
http://leetleech.org/images/67176952482789760118.png 
http://leetleech.org/images/46624923809304829493.png 
http://leetleech.org/images/43421316616204950660.png 
http://leetleech.org/images/71630508085694164460.png